# This file uses meters as units for non-parametric coordinates.

mtllib pillow.mtl
g default
v -348.911804 101.967834 362.404602
v -337.711121 102.144043 362.334473
v -326.632019 103.350220 362.140991
v -315.515137 103.001564 362.239685
v -304.413818 104.100258 362.282013
v -293.215820 104.793617 362.277924
v -349.974731 103.049316 364.340454
v -338.389771 103.414795 364.281128
v -326.848480 104.642258 363.960815
v -315.276337 104.235870 364.002380
v -303.727112 105.427002 364.229767
v -292.168762 105.983353 364.247253
v -349.996765 104.320091 364.349426
v -338.401062 104.761101 364.284210
v -326.861938 105.965454 363.892181
v -315.278992 105.553490 363.898376
v -303.730347 106.764732 364.259705
v -292.149536 107.249763 364.311584
v -349.995728 105.591629 364.325806
v -338.407288 106.102921 364.250732
v -326.869141 107.294426 363.897705
v -315.289429 106.880455 363.881897
v -303.741364 108.106453 364.286011
v -292.155396 108.525833 364.331848
v -348.954620 106.818756 362.332550
v -337.790955 107.397369 362.299438
v -326.665527 108.531471 362.086670
v -315.509460 108.143372 362.046997
v -304.370361 109.344002 362.365753
v -293.203857 109.652092 362.413910
v -348.953308 107.984596 362.266602
v -337.750671 108.695412 362.246948
v -326.634277 109.794762 362.209595
v -315.516113 109.434853 362.139893
v -304.424805 110.641830 362.355682
v -293.220276 110.830208 362.403015
v -348.518707 107.649437 341.570435
v -337.730499 113.302902 341.650848
v -326.702820 116.216797 341.767090
v -315.525055 117.060860 341.817474
v -304.319031 116.602341 341.819153
v -293.439728 111.647285 341.681122
v -348.194489 108.823006 320.911621
v -337.702637 115.950668 320.992310
v -326.698029 119.509811 321.037048
v -315.499695 119.887314 321.054382
v -304.390625 117.142395 321.031860
v -294.084534 109.376244 321.040405
v -348.029297 109.301079 300.262085
v -337.740051 117.221207 300.271912
v -326.674286 119.936691 300.208069
v -315.462158 119.473473 300.202698
v -304.429840 115.846893 300.271027
v -293.993530 108.647202 300.383911
v -348.732056 111.781975 279.640930
v -337.820862 116.650925 279.493073
v -326.641907 117.052277 279.476868
v -315.442047 116.220291 279.488403
v -304.398041 113.301254 279.612183
v -293.657318 107.611229 279.721344
v -348.921570 110.772949 258.926270
v -337.739807 110.563873 258.983398
v -326.635986 109.376190 259.175537
v -315.496918 109.855766 259.062408
v -304.367218 108.806564 259.019043
v -293.211548 108.054146 259.018433
v -348.936340 109.588562 258.912140
v -337.776123 109.218765 258.948486
v -326.646820 108.046051 259.258881
v -315.492523 108.567047 259.202606
v -304.348450 107.475121 258.984863
v -293.202820 106.874809 259.001923
v -349.998596 108.447792 256.977844
v -338.402679 107.997093 257.025116
v -326.866211 106.803764 257.418243
v -315.285522 107.349030 257.402649
v -303.733765 106.192047 257.048004
v -292.155334 105.639854 256.986847
v -349.996643 107.172234 257.009521
v -338.409821 106.655479 257.050720
v -326.870697 105.474709 257.403778
v -315.295654 106.021500 257.418640
v -303.744202 104.848816 257.021698
v -292.158203 104.364822 256.959808
v -349.986084 105.907776 257.077148
v -338.410065 105.303833 257.087372
v -326.873749 104.139893 257.309692
v -315.308228 104.672836 257.357880
v -303.756805 103.480698 257.034027
v -292.177917 103.095901 256.978485
v -348.955505 104.740662 259.032959
v -337.751984 104.025803 259.044800
v -326.634583 102.939018 259.084167
v -315.518433 103.421463 259.167175
v -304.428192 102.266220 258.955872
v -293.224792 102.016533 258.904572
v -348.492310 105.348236 279.736145
v -337.726105 99.578812 279.652954
v -326.704468 96.605156 279.536285
v -315.526733 95.784401 279.488617
v -304.321655 96.246567 279.487061
v -293.437927 101.164101 279.628113
v -348.177979 104.146828 300.408600
v -337.702454 96.945618 300.311493
v -326.701172 93.338501 300.267487
v -315.502930 92.959900 300.251587
v -304.394653 95.723549 300.275604
v -294.095886 103.525093 300.258331
v -348.025269 103.627754 321.058075
v -337.744019 95.677795 321.033478
v -326.680084 92.904205 321.096619
v -315.465759 93.374016 321.104614
v -304.436859 97.032944 321.033691
v -293.999329 104.229034 320.903564
v -348.713745 101.212776 341.679199
v -337.823578 96.207855 341.812073
v -326.641693 95.741531 341.834564
v -315.441925 96.618118 341.824219
v -304.401855 99.579834 341.697449
v -293.656738 105.192322 341.561340
v -292.612366 102.312958 278.462219
v -293.614105 104.484932 299.871948
v -293.385193 105.337204 321.328644
v -292.650665 106.555779 342.785095
v -292.744690 103.637512 278.467468
v -294.072754 105.477142 299.890167
v -293.928589 106.208290 321.388397
v -292.710938 107.891670 342.814331
v -292.718445 104.979301 278.483459
v -293.938782 106.738304 299.914429
v -294.063812 107.464661 321.415710
v -292.737915 109.235107 342.841187
v -293.670654 106.317421 279.696716
v -294.370087 107.552391 300.353271
v -294.574829 108.384903 321.037811
v -293.623627 110.405052 341.697601
v -349.487061 106.697876 278.521515
v -348.780579 105.227844 299.966797
v -348.516113 104.606758 321.428101
v -349.557434 102.375931 342.847900
v -349.442291 108.040871 278.483582
v -348.229492 106.091118 299.906830
v -348.102264 105.656090 321.412415
v -349.437408 103.708176 342.836426
v -349.434753 109.385796 278.466064
v -348.081482 107.342018 299.875427
v -348.261963 106.909409 321.384705
v -349.452576 105.052879 342.817078
v -348.549438 110.546150 279.613098
v -347.542236 108.305397 300.235535
v -347.823730 107.731506 320.924072
v -348.492920 106.382774 341.601837
vt 0.803314 0.927694
vt 0.801956 0.915828
vt 0.802616 0.915157
vt 0.803866 0.927472
vt 0.799127 0.915747
vt 0.798826 0.927704
vt 0.802446 0.903909
vt 0.803067 0.902801
vt 0.803378 0.915161
vt 0.804436 0.927482
vt 0.803719 0.939568
vt 0.804356 0.939813
vt 0.799580 0.939643
vt 0.803797 0.902790
vt 0.804150 0.915170
vt 0.805162 0.927496
vt 0.804857 0.939847
vt 0.804273 0.951450
vt 0.805057 0.952154
vt 0.801044 0.951528
vt 0.804530 0.902806
vt 0.804920 0.915868
vt 0.805630 0.927749
vt 0.805580 0.939863
vt 0.805825 0.952171
vt 0.804043 0.963365
vt 0.804728 0.964498
vt 0.805240 0.903965
vt 0.805664 0.915882
vt 0.806260 0.927766
vt 0.806109 0.939646
vt 0.806598 0.952186
vt 0.805456 0.964535
vt 0.805919 0.903974
vt 0.810401 0.927701
vt 0.808936 0.915819
vt 0.806679 0.939647
vt 0.807271 0.951528
vt 0.806190 0.964547
vt 0.811146 0.939642
vt 0.807985 0.951519
vt 0.806838 0.963444
vt 0.810835 0.951598
vt 0.807515 0.963437
vt 0.816691 0.939567
vt 0.816392 0.927690
vt 0.816955 0.927477
vt 0.817312 0.939821
vt 0.812549 0.939623
vt 0.811820 0.927704
vt 0.815003 0.915829
vt 0.815672 0.915157
vt 0.817559 0.927486
vt 0.817809 0.939855
vt 0.817382 0.951457
vt 0.818158 0.952155
vt 0.814063 0.951505
vt 0.812124 0.915753
vt 0.815437 0.903909
vt 0.816059 0.902795
vt 0.816438 0.915164
vt 0.818280 0.927502
vt 0.818528 0.939873
vt 0.818930 0.952177
vt 0.817032 0.963364
vt 0.817703 0.964489
vt 0.816790 0.902790
vt 0.817212 0.915175
vt 0.818752 0.927767
vt 0.819082 0.939666
vt 0.819704 0.952187
vt 0.818431 0.964528
vt 0.817522 0.902804
vt 0.817977 0.915874
vt 0.819380 0.927774
vt 0.819655 0.939651
vt 0.820371 0.951527
vt 0.819164 0.964546
vt 0.818227 0.903950
vt 0.818705 0.915892
vt 0.823480 0.927728
vt 0.824211 0.939645
vt 0.821082 0.951512
vt 0.819821 0.963434
vt 0.818898 0.903988
vt 0.821957 0.915846
vt 0.823883 0.951596
vt 0.820502 0.963426
vt 0.859016 0.902869
vt 0.865459 0.902880
vt 0.865471 0.914726
vt 0.859266 0.914772
vt 0.871853 0.902901
vt 0.871814 0.914659
vt 0.878248 0.902941
vt 0.878243 0.914630
vt 0.871816 0.926582
vt 0.865487 0.926608
vt 0.884627 0.902817
vt 0.884688 0.914629
vt 0.878257 0.926572
vt 0.871830 0.938563
vt 0.865465 0.938526
vt 0.891072 0.902790
vt 0.890945 0.914709
vt 0.884647 0.926585
vt 0.878279 0.938566
vt 0.871849 0.950486
vt 0.865419 0.950477
vt 0.884624 0.938526
vt 0.878290 0.950480
vt 0.871852 0.962163
vt 0.865466 0.962273
vt 0.884643 0.950408
vt 0.878259 0.962228
vt 0.859143 0.950392
vt 0.859034 0.962306
vt 0.884660 0.962253
vt 0.890820 0.950346
vt 0.891077 0.962253
vt 0.825575 0.903972
vt 0.832018 0.903979
vt 0.832033 0.915832
vt 0.825841 0.915879
vt 0.824982 0.902847
vt 0.831640 0.902853
vt 0.838413 0.904001
vt 0.838373 0.915765
vt 0.838275 0.902981
vt 0.844806 0.904049
vt 0.844802 0.915737
vt 0.838375 0.927688
vt 0.832047 0.927714
vt 0.844927 0.903008
vt 0.851185 0.903927
vt 0.851246 0.915736
vt 0.844815 0.927679
vt 0.838387 0.939669
vt 0.832023 0.939632
vt 0.851571 0.902822
vt 0.857629 0.903898
vt 0.857506 0.915817
vt 0.851205 0.927693
vt 0.844837 0.939673
vt 0.838409 0.951596
vt 0.831977 0.951584
vt 0.858231 0.902790
vt 0.851180 0.939632
vt 0.844851 0.951590
vt 0.838414 0.963276
vt 0.832042 0.963387
vt 0.851200 0.951518
vt 0.844808 0.963333
vt 0.838290 0.964323
vt 0.831652 0.964507
vt 0.825714 0.951507
vt 0.825600 0.963428
vt 0.851194 0.963357
vt 0.844946 0.964347
vt 0.824988 0.964541
vt 0.857381 0.951439
vt 0.857634 0.963355
vt 0.851588 0.964477
vt 0.858236 0.964487
vt 0.890446 0.995951
vt 0.890656 0.989287
vt 0.891431 0.989294
vt 0.891177 0.995963
vt 0.891362 0.982649
vt 0.892123 0.982657
vt 0.892202 0.989297
vt 0.891908 0.995963
vt 0.891128 0.975993
vt 0.891886 0.975995
vt 0.892888 0.982661
vt 0.892947 0.988943
vt 0.892614 0.995364
vt 0.891814 0.969350
vt 0.892583 0.969352
vt 0.892650 0.976001
vt 0.893599 0.982544
vt 0.893693 0.988920
vt 0.893285 0.995363
vt 0.892134 0.962703
vt 0.892862 0.962691
vt 0.893355 0.969359
vt 0.893376 0.976127
vt 0.894326 0.982526
vt 0.893596 0.962695
vt 0.894067 0.969720
vt 0.894119 0.976131
vt 0.894244 0.963298
vt 0.894813 0.969752
vt 0.894921 0.963307
vt 0.885439 0.995341
vt 0.885559 0.988910
vt 0.886332 0.988931
vt 0.886120 0.995350
vt 0.886242 0.982524
vt 0.887007 0.982530
vt 0.887035 0.989291
vt 0.886776 0.995961
vt 0.885966 0.976117
vt 0.886707 0.976114
vt 0.887721 0.982656
vt 0.887807 0.989295
vt 0.887509 0.995960
vt 0.886569 0.969715
vt 0.887335 0.969704
vt 0.887408 0.975995
vt 0.888486 0.982659
vt 0.888584 0.989296
vt 0.888237 0.995954
vt 0.887002 0.963299
vt 0.887681 0.963294
vt 0.888073 0.969351
vt 0.888171 0.976001
vt 0.889254 0.982660
vt 0.888391 0.962691
vt 0.888846 0.969357
vt 0.888947 0.976008
vt 0.889124 0.962693
vt 0.889633 0.969364
vt 0.889854 0.962704
vn 0.023204 -0.850400 0.525624
vn 0.068449 -0.828545 0.555723
vn 0.046706 -0.595269 0.802168
vn 0.017506 -0.540858 0.840932
vn 0.033288 -0.815870 0.577276
vn 0.034060 -0.542105 0.839620
vn 0.018953 -0.823855 0.566484
vn 0.014805 -0.576022 0.817300
vn 0.064762 -0.837836 0.542067
vn 0.034264 -0.593247 0.804291
vn 0.046350 -0.849640 0.525322
vn 0.027825 -0.541693 0.840116
vn 0.017561 0.013568 0.999754
vn 0.005347 0.008399 0.999951
vn 0.015159 0.025504 0.999560
vn -0.015052 0.024124 0.999596
vn -0.016657 -0.008013 0.999829
vn -0.002479 -0.026682 0.999641
vn -0.027936 0.597684 0.801245
vn -0.021105 0.539597 0.841659
vn -0.011594 0.597716 0.801624
vn -0.036315 0.561727 0.826526
vn -0.051275 0.591690 0.804533
vn -0.020476 0.531664 0.846708
vn -0.040180 0.622270 0.781771
vn -0.030309 0.686239 0.726744
vn -0.008533 0.565585 0.824646
vn -0.029296 0.585238 0.810332
vn -0.057997 0.590840 0.804702
vn -0.024296 0.662619 0.748563
vn 0.007438 0.006822 0.999949
vn -0.000414 0.048021 0.998846
vn 0.007814 -0.057201 0.998332
vn -0.009516 -0.057681 0.998290
vn -0.012542 -0.012200 0.999847
vn -0.004453 0.008340 0.999955
vn -0.276962 0.956086 0.095871
vn -0.226694 0.957968 0.175806
vn -0.320143 0.936658 0.142054
vn -0.402070 0.911590 0.085692
vn -0.097409 0.951540 0.291691
vn -0.133602 0.966833 0.217681
vn -0.027542 0.946828 0.320560
vn 0.007945 0.975702 0.218957
vn 0.086025 0.966854 0.240400
vn 0.219717 0.967131 0.127995
vn 0.208958 0.965083 0.157961
vn 0.375335 0.925372 0.053018
vn -0.424404 0.902693 0.070901
vn -0.550679 0.832994 0.053603
vn -0.153014 0.984892 0.081086
vn 0.093643 0.994514 0.046608
vn 0.393594 0.919200 -0.012467
vn 0.551275 0.833281 -0.041705
vn -0.393627 0.919198 0.011506
vn -0.552830 0.832308 0.040537
vn -0.089078 0.994903 -0.047260
vn 0.157291 0.984282 -0.080299
vn 0.426319 0.901825 -0.070451
vn 0.552518 0.831745 -0.054079
vn -0.218412 0.967139 -0.130148
vn -0.374445 0.925661 -0.054251
vn -0.007665 0.975281 -0.220837
vn 0.132786 0.967269 -0.216236
vn 0.322786 0.936412 -0.137631
vn 0.407582 0.909641 -0.080189
vn -0.083118 0.965668 -0.246125
vn -0.204184 0.964834 -0.165543
vn 0.024615 0.946202 -0.322638
vn 0.093023 0.952482 -0.290044
vn 0.228009 0.958441 -0.171472
vn 0.281516 0.955281 -0.090479
vn 0.004684 0.019290 -0.999803
vn 0.012687 0.000354 -0.999920
vn 0.057595 0.592576 -0.803453
vn 0.026725 0.661910 -0.749107
vn 0.008727 -0.051012 -0.998660
vn 0.024135 0.585312 -0.810448
vn -0.009564 -0.063274 -0.997950
vn 0.002877 0.558092 -0.829774
vn -0.007539 -0.012637 -0.999892
vn 0.039872 0.613399 -0.788766
vn 0.001961 0.020206 -0.999794
vn 0.034037 0.681201 -0.731305
vn 0.051561 0.593107 -0.803471
vn 0.022339 0.533157 -0.845721
vn 0.032401 0.563250 -0.825651
vn 0.006933 0.597958 -0.801497
vn 0.028774 0.597720 -0.801188
vn 0.023968 0.540200 -0.841196
vn 0.015713 -0.011528 -0.999810
vn 0.001637 -0.030570 -0.999531
vn 0.014680 0.019482 -0.999703
vn -0.015452 0.019168 -0.999697
vn -0.017929 0.008142 -0.999806
vn -0.004967 0.003957 -0.999980
vn -0.035831 -0.599807 -0.799342
vn -0.029986 -0.546629 -0.836838
vn -0.011721 -0.583275 -0.812190
vn -0.030249 -0.544390 -0.838287
vn -0.047188 -0.596102 -0.801521
vn -0.019323 -0.543459 -0.839213
vn -0.065720 -0.846235 -0.528741
vn -0.049082 -0.856419 -0.513943
vn -0.014064 -0.832673 -0.553586
vn -0.026912 -0.823987 -0.565969
vn -0.068421 -0.834391 -0.546909
vn -0.026210 -0.853470 -0.520482
vn -0.282294 -0.955514 -0.085462
vn -0.230574 -0.958483 -0.167769
vn -0.325055 -0.935593 -0.137858
vn -0.408351 -0.909261 -0.080590
vn -0.095293 -0.952819 -0.288195
vn -0.133499 -0.967344 -0.215462
vn -0.023138 -0.946965 -0.320502
vn 0.010684 -0.975747 -0.218640
vn 0.085052 -0.966466 -0.242303
vn 0.219502 -0.967149 -0.128223
vn 0.204720 -0.965602 -0.160317
vn 0.373531 -0.926110 -0.052872
vn -0.429031 -0.900503 -0.070906
vn -0.555327 -0.829874 -0.054052
vn -0.155018 -0.984607 -0.080739
vn 0.094765 -0.994424 -0.046273
vn 0.394571 -0.918770 0.013218
vn 0.551776 -0.832898 0.042716
vn -0.398390 -0.917136 -0.012109
vn -0.557000 -0.829518 -0.040627
vn -0.090991 -0.994775 0.046308
vn 0.159258 -0.983997 0.079915
vn 0.427090 -0.901496 0.069998
vn 0.551951 -0.832179 0.053188
vn -0.223927 -0.966420 0.126052
vn -0.380898 -0.923273 0.049849
vn -0.007082 -0.975838 0.218380
vn 0.137163 -0.966770 0.215735
vn 0.322313 -0.936540 0.137867
vn 0.403616 -0.911381 0.080499
vn -0.087896 -0.967023 0.239043
vn -0.211348 -0.964868 0.156083
vn 0.027463 -0.947084 0.319808
vn 0.098949 -0.951886 0.290037
vn 0.226912 -0.958403 0.173131
vn 0.275554 -0.956813 0.092625
vn 0.844142 -0.533067 0.057140
vn 0.756020 -0.654405 -0.013756
vn 0.985799 -0.167271 0.014867
vn 0.958159 -0.285408 0.021783
vn 0.879917 -0.473128 0.043539
vn 0.996139 -0.080435 0.035179
vn 0.863116 -0.504923 0.009094
vn 0.991224 -0.131106 -0.016926
vn 0.822645 -0.568530 -0.005395
vn 0.958575 -0.282901 -0.033177
vn 0.797673 -0.602277 -0.031319
vn 0.977635 -0.208468 -0.027782
vn 0.999549 0.015308 0.025820
vn 0.997831 0.054944 0.036250
vn 0.988445 0.150242 0.020086
vn 0.981421 0.187966 -0.038487
vn 0.995717 0.081479 -0.043685
vn 0.999578 0.014798 -0.025005
vn 0.977898 0.206711 0.031398
vn 0.954976 0.294110 0.038985
vn 0.970252 0.241605 0.015434
vn 0.964641 0.258778 -0.050027
vn 0.933606 0.356658 -0.034273
vn 0.976612 0.214263 -0.017906
vn 0.910304 0.412595 0.033361
vn 0.959834 0.279781 0.021015
vn 0.993799 0.110500 0.012381
vn 0.995726 0.089350 -0.023384
vn 0.976066 0.213483 -0.041487
vn 0.899962 0.435955 -0.003371
vn 0.999755 -0.002224 0.022010
vn 0.996165 -0.082915 0.027948
vn 0.960930 -0.275421 0.027502
vn 0.942550 -0.334008 0.006216
vn 0.984286 -0.176118 -0.012773
vn 0.997440 -0.069212 -0.018009
vn -0.801385 -0.596935 0.038090
vn -0.821558 -0.570119 0.002493
vn -0.959932 -0.277939 0.035769
vn -0.977696 -0.207824 0.030334
vn -0.862305 -0.506315 -0.008665
vn -0.990442 -0.137213 0.014066
vn -0.879374 -0.474273 -0.042023
vn -0.995153 -0.091222 -0.036744
vn -0.842573 -0.535277 -0.059587
vn -0.955549 -0.293873 -0.023756
vn -0.754413 -0.656304 0.011210
vn -0.984105 -0.177007 -0.014331
vn -0.996119 0.076024 0.044354
vn -0.999654 0.008343 0.024951
vn -0.982559 0.182124 0.037535
vn -0.990555 0.135219 -0.022741
vn -0.998206 0.047538 -0.036400
vn -0.999576 0.015513 -0.024657
vn -0.932542 0.359582 0.032640
vn -0.978018 0.207958 0.015289
vn -0.964812 0.258039 0.050543
vn -0.969422 0.244902 -0.015596
vn -0.954126 0.297142 -0.036750
vn -0.977005 0.211188 -0.029356
vn -0.975682 0.214866 0.043331
vn -0.896226 0.443589 -0.002745
vn -0.994563 0.101265 0.024298
vn -0.993378 0.114060 -0.013835
vn -0.959075 0.282558 -0.018336
vn -0.907019 0.419978 -0.030579
vn -0.984280 -0.176191 0.012221
vn -0.997437 -0.069464 0.017181
vn -0.943214 -0.332136 -0.005860
vn -0.961107 -0.274862 -0.026914
vn -0.995529 -0.090269 -0.027823
vn -0.999711 -0.010953 -0.021426
s 1
g pillow bed
usemtl lambert11SG
f 1/157/1 2/151/2 8/155/3 7/160/4
f 2/151/2 3/150/5 9/154/6 8/155/3
f 3/150/5 4/153/7 10/159/8 9/154/6
f 4/153/7 5/158/9 11/163/10 10/159/8
f 5/158/9 6/162/11 12/164/12 11/163/10
f 7/165/4 8/166/3 14/167/13 13/168/14
f 8/166/3 9/169/6 15/170/15 14/167/13
f 9/169/6 10/173/8 16/174/16 15/170/15
f 10/173/8 11/178/10 17/179/17 16/174/16
f 11/178/10 12/184/12 18/185/18 17/179/17
f 13/168/14 14/167/13 20/171/19 19/172/20
f 14/167/13 15/170/15 21/175/21 20/171/19
f 15/170/15 16/174/16 22/180/22 21/175/21
f 16/174/16 17/179/17 23/186/23 22/180/22
f 17/179/17 18/185/18 24/189/24 23/186/23
f 19/172/20 20/171/19 26/176/25 25/177/26
f 20/171/19 21/175/21 27/181/27 26/176/25
f 21/175/21 22/180/22 28/187/28 27/181/27
f 22/180/22 23/186/23 29/190/29 28/187/28
f 23/186/23 24/189/24 30/192/30 29/190/29
f 25/177/26 26/176/25 32/182/31 31/183/32
f 26/176/25 27/181/27 33/188/33 32/182/31
f 27/181/27 28/187/28 34/191/34 33/188/33
f 28/187/28 29/190/29 35/193/35 34/191/34
f 29/190/29 30/192/30 36/194/36 35/193/35
s 2
f 31/89/37 32/90/38 38/91/39 37/92/40
f 32/90/38 33/93/41 39/94/42 38/91/39
f 33/93/41 34/95/43 40/96/44 39/94/42
f 34/95/43 35/99/45 41/100/46 40/96/44
f 35/99/45 36/104/47 42/105/48 41/100/46
f 37/80/40 38/86/39 44/81/49 43/75/50
f 38/91/39 39/94/42 45/97/51 44/98/49
f 39/94/42 40/96/44 46/101/52 45/97/51
f 40/96/44 41/100/46 47/106/53 46/101/52
f 41/43/46 42/41/48 48/37/54 47/40/53
f 43/75/50 44/81/49 50/82/55 49/76/56
f 44/98/49 45/97/51 51/102/57 50/103/55
f 45/97/51 46/101/52 52/107/58 51/102/57
f 46/101/52 47/106/53 53/110/59 52/107/58
f 47/40/53 48/37/54 54/30/60 53/35/59
f 49/76/56 50/82/55 56/87/61 55/83/62
f 50/103/55 51/102/57 57/108/63 56/109/61
f 51/102/57 52/107/58 58/111/64 57/108/63
f 52/107/58 53/110/59 59/114/65 58/111/64
f 53/35/59 54/30/60 60/29/66 59/36/65
f 55/116/62 56/109/61 62/113/67 61/117/68
f 56/109/61 57/108/63 63/112/69 62/113/67
f 57/108/63 58/111/64 64/115/70 63/112/69
f 58/111/64 59/114/65 65/118/71 64/115/70
f 59/114/65 60/119/66 66/120/72 65/118/71
s 3
f 61/195/73 62/196/74 68/197/75 67/198/76
f 62/196/74 63/199/77 69/200/78 68/197/75
f 63/199/77 64/203/79 70/204/80 69/200/78
f 64/203/79 65/208/81 71/209/82 70/204/80
f 65/208/81 66/214/83 72/215/84 71/209/82
f 67/198/76 68/197/75 74/201/85 73/202/86
f 68/197/75 69/200/78 75/205/87 74/201/85
f 69/200/78 70/204/80 76/210/88 75/205/87
f 70/204/80 71/209/82 77/216/89 76/210/88
f 71/209/82 72/215/84 78/219/90 77/216/89
f 73/202/86 74/201/85 80/206/91 79/207/92
f 74/201/85 75/205/87 81/211/93 80/206/91
f 75/205/87 76/210/88 82/217/94 81/211/93
f 76/210/88 77/216/89 83/220/95 82/217/94
f 77/216/89 78/219/90 84/222/96 83/220/95
f 79/207/92 80/206/91 86/212/97 85/213/98
f 80/206/91 81/211/93 87/218/99 86/212/97
f 81/211/93 82/217/94 88/221/100 87/218/99
f 82/217/94 83/220/95 89/223/101 88/221/100
f 83/220/95 84/222/96 90/224/102 89/223/101
f 85/125/98 86/126/97 92/122/103 91/121/104
f 86/126/97 87/129/99 93/127/105 92/122/103
f 87/129/99 88/134/100 94/130/106 93/127/105
f 88/134/100 89/140/101 95/135/107 94/130/106
f 89/140/101 90/147/102 96/141/108 95/135/107
s 4
f 91/121/109 92/122/110 98/123/111 97/124/112
f 92/122/110 93/127/113 99/128/114 98/123/111
f 93/127/113 94/130/115 100/131/116 99/128/114
f 94/130/115 95/135/117 101/136/118 100/131/116
f 95/135/117 96/141/119 102/142/120 101/136/118
f 97/55/112 98/57/111 104/49/121 103/45/122
f 98/123/111 99/128/114 105/132/123 104/133/121
f 99/128/114 100/131/116 106/137/124 105/132/123
f 100/131/116 101/136/118 107/143/125 106/137/124
f 101/5/118 102/2/120 108/1/126 107/6/125
f 103/45/122 104/49/121 110/50/127 109/46/128
f 104/133/121 105/132/123 111/138/129 110/139/127
f 105/132/123 106/137/124 112/144/130 111/138/129
f 106/137/124 107/143/125 113/148/131 112/144/130
f 107/6/125 108/1/126 114/11/132 113/13/131
f 109/46/128 110/50/127 116/58/133 115/51/134
f 110/139/127 111/138/129 117/145/135 116/146/133
f 111/138/129 112/144/130 118/149/136 117/145/135
f 112/144/130 113/148/131 119/152/137 118/149/136
f 113/13/131 114/11/132 120/18/138 119/20/137
f 115/156/134 116/146/133 2/151/139 1/157/140
f 116/146/133 117/145/135 3/150/141 2/151/139
f 117/145/135 118/149/136 4/153/142 3/150/141
f 118/149/136 119/152/137 5/158/143 4/153/142
f 119/152/137 120/161/138 6/162/144 5/158/143
s 5
f 102/2/145 96/7/146 90/8/147 121/3/148
f 108/1/149 102/2/145 121/3/148 122/4/150
f 114/11/151 108/1/149 122/4/150 123/12/152
f 120/18/153 114/11/151 123/12/152 124/19/154
f 6/26/155 120/18/153 124/19/154 12/27/156
f 121/3/148 90/8/147 84/14/157 125/9/158
f 122/4/150 121/3/148 125/9/158 126/10/159
f 123/12/152 122/4/150 126/10/159 127/17/160
f 124/19/154 123/12/152 127/17/160 128/25/161
f 12/27/156 124/19/154 128/25/161 18/33/162
f 125/9/158 84/14/157 78/21/163 129/15/164
f 126/10/159 125/9/158 129/15/164 130/16/165
f 127/17/160 126/10/159 130/16/165 131/24/166
f 128/25/161 127/17/160 131/24/166 132/32/167
f 18/33/162 128/25/161 132/32/167 24/39/168
f 129/15/164 78/21/163 72/28/169 133/22/170
f 130/16/165 129/15/164 133/22/170 134/23/171
f 131/24/166 130/16/165 134/23/171 135/31/172
f 132/32/167 131/24/166 135/31/172 136/38/173
f 24/39/168 132/32/167 136/38/173 30/42/174
f 133/22/170 72/28/169 66/34/175 60/29/176
f 134/23/171 133/22/170 60/29/176 54/30/177
f 135/31/172 134/23/171 54/30/177 48/37/178
f 136/38/173 135/31/172 48/37/178 42/41/179
f 30/42/174 136/38/173 42/41/179 36/44/180
s 6
f 91/65/181 97/55/182 137/56/183 85/66/184
f 97/55/182 103/45/185 138/48/186 137/56/183
f 103/45/185 109/46/187 139/47/188 138/48/186
f 109/46/187 115/51/189 140/52/190 139/47/188
f 115/51/189 1/59/191 7/60/192 140/52/190
f 85/66/184 137/56/183 141/64/193 79/72/194
f 137/56/183 138/48/186 142/54/195 141/64/193
f 138/48/186 139/47/188 143/53/196 142/54/195
f 139/47/188 140/52/190 144/61/197 143/53/196
f 140/52/190 7/60/192 13/67/198 144/61/197
f 79/72/194 141/64/193 145/71/199 73/78/200
f 141/64/193 142/54/195 146/63/201 145/71/199
f 142/54/195 143/53/196 147/62/202 146/63/201
f 143/53/196 144/61/197 148/68/203 147/62/202
f 144/61/197 13/67/198 19/73/204 148/68/203
f 73/78/200 145/71/199 149/77/205 67/84/206
f 145/71/199 146/63/201 150/70/207 149/77/205
f 146/63/201 147/62/202 151/69/208 150/70/207
f 147/62/202 148/68/203 152/74/209 151/69/208
f 148/68/203 19/73/204 25/79/210 152/74/209
f 67/84/206 149/77/205 55/83/211 61/88/212
f 149/77/205 150/70/207 49/76/213 55/83/211
f 150/70/207 151/69/208 43/75/214 49/76/213
f 151/69/208 152/74/209 37/80/215 43/75/214
f 152/74/209 25/79/210 31/85/216 37/80/215
